<svg xmlns="http://www.w3.org/2000/svg" fill="none" viewBox="0 0 48 48" id="Attach--Streamline-Ionic-Filled" height="48" width="48">
  <desc>
    Attach Streamline Icon: https://streamlinehq.com
  </desc>
  <path fill="#000000" fill-rule="evenodd" d="M16.7254 1.2676C17.9698 0.7477 19.3051 0.48 20.6536 0.48s2.684 0.2677 3.9283 0.7876 2.3733 1.2816 3.321 2.2409c0.9478 0.9594 1.6958 2.0974 2.2006 3.348 0.5032 1.247 0.7547 2.5813 0.7399 3.9258l-0.0158 22.8943 -0.0002 0.0146c-0.0283 1.7868 -0.7579 3.491 -2.0313 4.7445 -1.2736 1.2537 -2.9891 1.9562 -4.7761 1.9562 -1.7869 0 -3.5022 -0.7025 -4.7759 -1.9562 -1.2735 -1.2535 -2.0031 -2.9577 -2.0315 -4.7445l-0.0002 -0.0152V16.1971c0 -1.0728 0.8698 -1.9424 1.9424 -1.9424 1.0729 0 1.9425 0.8697 1.9425 1.9424v17.4462c0.0155 0.7624 0.3284 1.4887 0.872 2.0238 0.5469 0.5383 1.2834 0.8399 2.0507 0.8399 0.7674 0 1.504 -0.3016 2.0508 -0.8399 0.5438 -0.5352 0.8566 -1.2617 0.8721 -2.0243l0.0158 -22.8848 0.0001 -0.0111c0.0101 -0.8344 -0.1456 -1.6626 -0.4578 -2.4364 -0.3125 -0.7739 -0.7751 -1.4781 -1.3616 -2.0718 -0.5865 -0.5935 -1.2852 -1.0649 -2.055 -1.3865 -0.7701 -0.3217 -1.5963 -0.4874 -2.4308 -0.4874 -0.8344 0 -1.6606 0.1657 -2.4307 0.4874 -0.7699 0.3216 -1.4685 0.793 -2.055 1.3865 -0.5865 0.5937 -1.0492 1.2979 -1.3617 2.0718 -0.3122 0.7738 -0.4678 1.602 -0.4577 2.4364l0.0001 0.0117v23.0703l-0.0001 0.014c-0.0186 1.2793 0.2174 2.5494 0.6942 3.7366 0.4767 1.1872 1.1848 2.2677 2.0827 3.1789 0.8982 0.9112 1.9683 1.6348 3.1486 2.1286 1.1801 0.4939 2.4467 0.7481 3.7259 0.7481 1.2796 0 2.5461 -0.2542 3.7263 -0.7481 1.1802 -0.4938 2.2504 -1.2174 3.1484 -2.1286 0.8981 -0.9112 1.606 -1.9917 2.0829 -3.1789 0.4766 -1.1872 0.7127 -2.4573 0.6942 -3.7366l-0.0003 -0.014V12.2806c0 -1.0726 0.8697 -1.9424 1.9423 -1.9424 1.0729 0 1.9425 0.8698 1.9425 1.9424v21.5207c0.0241 1.7891 -0.3069 3.5653 -0.9737 5.2258 -0.6686 1.665 -1.6616 3.1805 -2.921 4.4583 -1.2595 1.2779 -2.7605 2.2928 -4.4157 2.9853C27.5707 47.1632 25.7942 47.52 24 47.52c-1.7942 0 -3.5705 -0.3568 -5.2257 -1.0493 -1.6551 -0.6926 -3.1562 -1.7074 -4.4156 -2.9853 -1.2595 -1.2778 -2.2525 -2.7933 -2.921 -4.4583 -0.6669 -1.6605 -0.9978 -3.4368 -0.9738 -5.2258V10.7816c-0.0147 -1.3443 0.2368 -2.6783 0.7399 -3.9251 0.5049 -1.2506 1.2527 -2.3886 2.2005 -3.348 0.9478 -0.9593 2.0768 -1.721 3.3211 -2.2409Z" clip-rule="evenodd" stroke-width="1"></path>
</svg>